<svg height="480pt" viewBox="-5 0 480 480.02637" width="480pt" xmlns="http://www.w3.org/2000/svg"><path d="m405.929688 335.546875v136.480469h-224v-72c0-4.417969-3.578126-8-8-8h-64c-26.507813 0-48-21.492188-48-48v-56h-45.917969c-3.15625-.007813-6.015625-1.871094-7.296875-4.761719-1.277344-2.886719-.738282-6.253906 1.375-8.597656l67.839844-74.640625c0-86.859375 58.308593-162.90625 142.195312-185.4375s172.453125 14.0625 215.972656 89.234375c43.515625 75.171875 31.148438 170.195312-30.167968 231.722656zm0 0" fill="#ffdaaa"/><g fill="#3d9ae2"><path d="m309.929688 192.027344-16 24h-48l-16-24zm0 0"/><path d="m309.929688 192.027344v-64h1.84375c13.347656-.03125 25.296874 8.273437 29.917968 20.800781l12.160156 32.398437c.9375 2.449219.609376 5.199219-.875 7.359376-1.488281 2.160156-3.945312 3.445312-6.566406 3.441406zm0 0"/><path d="m229.929688 128.027344v64h-36.476563c-2.621094.003906-5.078125-1.28125-6.566406-3.441406-1.484375-2.160157-1.8125-4.910157-.875-7.359376l12.160156-32.398437c4.621094-12.527344 16.570313-20.832031 29.917969-20.800781zm0 0"/></g><path d="m269.929688 240.027344c13.257812 0 24 10.746094 24 24 0 13.277344-10.71875 40-24 40-13.277344 0-24-26.722656-24-40 0-13.253906 10.746093-24 24-24zm0 0" fill="#ff6243"/><path d="m333.929688 328.027344c-2.90625.011718-5.757813.824218-8.238282 2.34375.140625-.773438.222656-1.558594.238282-2.34375.015624-7.796875-5.605469-14.464844-13.292969-15.765625-7.6875-1.304688-15.191407 3.140625-17.746094 10.507812-1.058594-.664062-2.195313-1.199219-3.382813-1.597656-5.394531-6.21875-13.359374-9.59375-21.578124-9.144531-8.21875-.464844-16.191407 2.898437-21.597657 9.109375-1.1875.398437-2.324219.9375-3.382812 1.601562-2.582031-7.335937-10.074219-11.746093-17.738281-10.4375-7.667969 1.308594-13.277344 7.949219-13.28125 15.726563.019531.785156.101562 1.570312.242187 2.34375-5.792969-3.535156-13.183594-3.035156-18.445313 1.253906-5.261718 4.285156-7.242187 11.425781-4.949218 17.8125 2.292968 6.386719 8.367187 10.628906 15.152344 10.589844h128c8.839843 0 16-7.164063 16-16 0-8.835938-7.160157-16-16-16zm0 0" fill="#f1f2f2"/><path d="m309.929688 89.464844v102.5625h-80v-102.5625c-.039063-6.398438 1.886718-12.652344 5.523437-17.917969 8-11.679687 23.199219-31.519531 34.476563-31.519531 11.28125 0 26.480468 19.839844 34.480468 31.519531 3.636719 5.265625 5.5625 11.519531 5.519532 17.917969zm0 0" fill="#5aaae7"/><path d="m285.929688 88.027344c0 8.835937-7.160157 16-16 16-8.835938 0-16-7.164063-16-16 0-8.835938 7.164062-16 16-16 8.839843 0 16 7.164062 16 16zm0 0" fill="#ff9811"/><path d="m469.285156 183.667969c-8.34375-98.703125-87.496094-176.527344-186.320312-183.203125-55.25-3.792969-109.574219 15.675781-149.832032 53.707031-39.457031 37.105469-62.246093 88.578125-63.203124 142.734375l-65.757813 72.359375c-4.2578125 4.6875-5.351563 11.445313-2.789063 17.238281 2.5625 5.792969 8.304688 9.523438 14.636719 9.523438h37.910157v48c.039062 30.914062 25.089843 55.964844 56 56h64v72c0 4.417968 3.582031 8 8 8h224c4.421874 0 8-3.582032 8-8v-133.21875c39.84375-41.382813 60-97.882813 55.355468-155.140625zm-69.015625 146.222656v.046875c-4.683593 4.6875-9.613281 9.121094-14.761719 13.289062l10.0625 12.441407c.800782-.648438 1.601563-1.355469 2.402344-2.019531v110.378906h-208.042968v-64c0-8.835938-7.160157-16-16-16h-64c-22.078126-.027344-39.972657-17.921875-40-40v-56c0-4.417969-3.578126-8-8-8h-45.917969l67.839843-74.617188c1.339844-1.472656 2.082032-3.394531 2.078126-5.382812 0-50.886719 21.070312-99.5 58.207031-134.289063 37.132812-34.789062 87.019531-52.648437 137.792969-49.328125 72.023437 4.714844 134.640624 51.105469 160.125 118.632813 25.488281 67.527343 9.140624 143.71875-41.804688 194.847656zm0 0"/><path d="m193.476562 200.027344h32.175782l13.597656 20.4375c1.492188 2.234375 4 3.570312 6.679688 3.5625h48c2.675781 0 5.171874-1.335938 6.65625-3.5625l13.625-20.4375h32.175781c5.246093-.003906 10.15625-2.574219 13.144531-6.882813 2.988281-4.308593 3.675781-9.804687 1.839844-14.71875l-12.160156-32.421875c-5.105469-13.488281-17.039063-23.214844-31.28125-25.488281v-31.007813c.035156-8.007812-2.367188-15.839843-6.886719-22.449218-23.96875-35.03125-36.871094-35.03125-41.113281-35.03125-4.238282 0-17.148438 0-41.109376 35.023437-4.515624 6.617188-6.917968 14.445313-6.890624 22.457031v31.007813c-14.234376 2.269531-26.167969 11.988281-31.277344 25.472656l-12.160156 32.4375c-1.835938 4.914063-1.148438 10.410157 1.839843 14.71875 2.988281 4.308594 7.898438 6.878907 13.144531 6.882813zm96.175782 8h-39.441406l-5.335938-8h50.113281zm44.574218-56.425782 12.160157 32.425782h-28.457031v-47.121094c7.480468 1.992188 13.542968 7.460938 16.296874 14.695312zm-96.296874-62.09375c-.023438-4.785156 1.402343-9.460937 4.089843-13.417968 15.191407-22.199219 24.894531-28.0625 27.910157-28.0625 3.019531 0 12.722656 5.863281 27.914062 28.070312 2.6875 3.953125 4.113281 8.628906 4.085938 13.410156v94.519532h-64zm-32.292969 62.09375c2.753906-7.230468 8.816406-12.699218 16.292969-14.695312v47.121094h-28.453126zm0 0"/><path d="m269.929688 232.027344c-17.671876 0-32 14.324218-32 32 0 16.480468 12.464843 48 32 48 19.539062 0 32-31.519532 32-48 0-17.675782-14.324219-32-32-32zm0 64c-5.980469 0-16-20.039063-16-32 0-8.835938 7.164062-16 16-16 8.839843 0 16 7.164062 16 16 0 11.960937-10.015626 32-16 32zm0 0"/><path d="m357.929688 344.027344c-.027344-6.59375-2.757813-12.882813-7.546876-17.410156-4.792968-4.527344-11.230468-6.894532-17.8125-6.550782-3.878906-11.03125-15.148437-17.660156-26.675781-15.695312-11.527343 1.96875-19.960937 11.960937-19.964843 23.65625h16c0-4.417969 3.582031-8 8-8 4.421874 0 8 3.582031 8 8-.007813.460937-.046876.917968-.109376 1.375-.328124 3.019531 1.082032 5.964844 3.636719 7.601562 2.558594 1.636719 5.820313 1.6875 8.425781.125 1.222657-.730468 2.625-1.109375 4.046876-1.101562 4.421874 0 8 3.582031 8 8 0 4.417968-3.578126 8-8 8h-128c-4.417969 0-8-3.582032-8-8 0-4.417969 3.582031-8 8-8 1.425781-.011719 2.828124.371094 4.050781 1.101562 2.609375 1.566406 5.886719 1.515625 8.445312-.132812 2.5625-1.648438 3.964844-4.609375 3.617188-7.632813-.066407-.441406-.105469-.890625-.113281-1.335937 0-4.417969 3.582031-8 8-8 4.421874 0 8 3.582031 8 8h16c.011718-11.703125-8.421876-21.707032-19.960938-23.675782s-22.8125 4.671876-26.683594 15.714844c-6.582031-.335937-13.011718 2.035156-17.796875 6.5625-4.789062 4.523438-7.519531 10.808594-7.558593 17.398438.027343 2.730468.527343 5.4375 1.472656 8h-25.472656v16h224v-16h-25.46875c.945312-2.5625 1.445312-5.269532 1.46875-8zm0 0"/><path d="m269.929688 64.027344c-13.253907 0-24 10.746094-24 24s10.746093 24 24 24c13.257812 0 24-10.746094 24-24s-10.742188-24-24-24zm0 32c-4.417969 0-8-3.582032-8-8 0-4.417969 3.582031-8 8-8 4.421874 0 8 3.582031 8 8 0 4.417968-3.578126 8-8 8zm0 0"/><path d="m357.929688 208.027344h16v32h-16zm0 0"/><path d="m357.929688 256.027344h16v16h-16zm0 0"/><path d="m389.929688 224.027344h16v32h-16zm0 0"/><path d="m389.929688 272.027344h16v16h-16zm0 0"/><path d="m165.929688 208.027344h16v32h-16zm0 0"/><path d="m165.929688 256.027344h16v16h-16zm0 0"/><path d="m133.929688 224.027344h16v32h-16zm0 0"/><path d="m133.929688 272.027344h16v16h-16zm0 0"/></svg>